<svg xmlns="http://www.w3.org/2000/svg" width="1200" height="630" viewBox="0 0 1200 630">
  <defs>
    <linearGradient id="bg" x1="0%" y1="0%" x2="100%" y2="100%">
      <stop offset="0%" stop-color="#0b1220" />
      <stop offset="100%" stop-color="#132746" />
    </linearGradient>
    <linearGradient id="accent" x1="0%" y1="0%" x2="100%" y2="100%">
      <stop offset="0%" stop-color="#0e8cff" />
      <stop offset="100%" stop-color="#35c4ff" />
    </linearGradient>
  </defs>
  <rect width="1200" height="630" fill="url(#bg)" />
  <circle cx="1060" cy="110" r="180" fill="#1c2f4d" opacity="0.45" />
  <circle cx="120" cy="560" r="200" fill="#1c2f4d" opacity="0.45" />
  <rect x="90" y="120" width="180" height="180" rx="42" fill="#0f1628" stroke="#29497a" />
  <path d="M134 155h60a45 45 0 0 1 0 90h-60z" fill="url(#accent)" />
  <path d="M177 176h17a26 26 0 0 1 0 52h-17z" fill="#0f1628" />
  <path d="M230 172l18 14-18 14m0 20l18 14-18 14" fill="none" stroke="#c8f4ff" stroke-linecap="round" stroke-linejoin="round" stroke-width="9" />
  <text x="310" y="210" fill="#eff6ff" font-family="Segoe UI, Arial, sans-serif" font-size="64" font-weight="700">
    DevStarter Kit
  </text>
  <text x="310" y="282" fill="#9ec4ff" font-family="Segoe UI, Arial, sans-serif" font-size="34">
    Templates HTML, CSS et JavaScript pour débutants
  </text>
  <text x="310" y="336" fill="#9ec4ff" font-family="Segoe UI, Arial, sans-serif" font-size="30">
    Composants modernes • Copie instantanée • Responsive pro
  </text>
</svg>
