<svg xmlns="http://www.w3.org/2000/svg" width="1200" height="630" viewBox="0 0 1200 630" role="img" aria-label="DevStarter Kit">
  <defs>
    <linearGradient id="bg" x1="0%" y1="0%" x2="100%" y2="100%">
      <stop offset="0%" stop-color="#0D0D1A"/>
      <stop offset="50%" stop-color="#17172E"/>
      <stop offset="100%" stop-color="#101B2B"/>
    </linearGradient>
    <linearGradient id="accent" x1="0%" y1="0%" x2="100%" y2="100%">
      <stop offset="0%" stop-color="#6C63FF"/>
      <stop offset="50%" stop-color="#0FCCCE"/>
      <stop offset="100%" stop-color="#FF6584"/>
    </linearGradient>
    <filter id="blur" x="-20%" y="-20%" width="140%" height="140%">
      <feGaussianBlur stdDeviation="40"/>
    </filter>
  </defs>
  <rect width="1200" height="630" fill="url(#bg)"/>
  <circle cx="220" cy="120" r="140" fill="#6C63FF" opacity="0.28" filter="url(#blur)"/>
  <circle cx="980" cy="160" r="160" fill="#0FCCCE" opacity="0.2" filter="url(#blur)"/>
  <circle cx="820" cy="500" r="180" fill="#FF6584" opacity="0.16" filter="url(#blur)"/>
  <rect x="88" y="88" width="1024" height="454" rx="38" fill="rgba(255,255,255,0.04)" stroke="rgba(255,255,255,0.12)"/>
  <rect x="128" y="132" width="92" height="92" rx="26" fill="url(#accent)"/>
  <path d="M157 154h20c17 0 30 12 30 24s-13 24-30 24h-20z" fill="#fff"/>
  <path d="M171 167v26h6c9 0 15-5 15-13s-6-13-15-13z" fill="#6C63FF"/>
  <text x="128" y="308" fill="#ffffff" font-family="'Plus Jakarta Sans', 'Segoe UI', sans-serif" font-size="72" font-weight="800">
    DevStarter Kit
  </text>
  <text x="128" y="372" fill="#C6CCE8" font-family="'Plus Jakarta Sans', 'Segoe UI', sans-serif" font-size="28" font-weight="500">
    Templates HTML, CSS et JavaScript pour aller plus vite.
  </text>
  <text x="128" y="416" fill="#C6CCE8" font-family="'Plus Jakarta Sans', 'Segoe UI', sans-serif" font-size="28" font-weight="500">
    Navbar, Footer, Cards et Forms dans une galerie premium.
  </text>
  <rect x="128" y="464" width="236" height="56" rx="28" fill="url(#accent)"/>
  <text x="246" y="500" text-anchor="middle" fill="#ffffff" font-family="'Plus Jakarta Sans', 'Segoe UI', sans-serif" font-size="22" font-weight="700">
    26 templates
  </text>
</svg>
